<?xml version="1.0" encoding="UTF-8" standalone="no"?>
<!DOCTYPE svg PUBLIC "-//W3C//DTD SVG 1.1//EN"
 "http://www.w3.org/Graphics/SVG/1.1/DTD/svg11.dtd">
<!-- Generated by graphviz version 2.36.0 (20140111.2315)
 -->
<!-- Title: AsterixJob Pages: 1 -->
<svg width="825pt" height="564pt"
 viewBox="0.00 0.00 825.00 564.00" xmlns="http://www.w3.org/2000/svg" xmlns:xlink="http://www.w3.org/1999/xlink">
<g id="graph0" class="graph" transform="scale(1 1) rotate(0) translate(4 560)">
<title>AsterixJob</title>
<polygon fill="white" stroke="none" points="-4,4 -4,-560 821,-560 821,4 -4,4"/>
<!-- ODID0 -->
<g id="node1" class="node"><title>ODID0</title>
<polygon fill="none" stroke="black" points="31,-456.5 31,-479.5 517,-479.5 517,-456.5 31,-456.5"/>
<text text-anchor="middle" x="274" y="-464.3" font-family="Times,serif" font-size="14.00">edu.uci.ics.hyracks.storage.am.btree.dataflow.BTreeSearchOperatorDescriptorODID0</text>
</g>
<!-- ODID4 -->
<g id="node5" class="node"><title>ODID4</title>
<polygon fill="none" stroke="black" points="0,-380.5 0,-403.5 548,-403.5 548,-380.5 0,-380.5"/>
<text text-anchor="middle" x="274" y="-388.3" font-family="Times,serif" font-size="14.00">edu.uci.ics.hyracks.algebricks.runtime.operators.meta.AlgebricksMetaOperatorDescriptorODID4</text>
</g>
<!-- ODID0&#45;&gt;ODID4 -->
<g id="edge2" class="edge"><title>ODID0&#45;&gt;ODID4</title>
<path fill="none" stroke="black" d="M274,-456.398C274,-445.298 274,-427.584 274,-413.698"/>
<polygon fill="black" stroke="black" points="277.5,-413.583 274,-403.583 270.5,-413.583 277.5,-413.583"/>
<text text-anchor="middle" x="501" y="-426.3" font-family="Times,serif" font-size="14.00">edu.uci.ics.hyracks.dataflow.std.connectors.OneToOneConnectorDescriptorCDID1</text>
</g>
<!-- ODID1 -->
<g id="node2" class="node"><title>ODID1</title>
<polygon fill="none" stroke="black" points="57.5,-304.5 57.5,-327.5 490.5,-327.5 490.5,-304.5 57.5,-304.5"/>
<text text-anchor="middle" x="274" y="-312.3" font-family="Times,serif" font-size="14.00">edu.uci.ics.hyracks.dataflow.std.sort.ExternalSortOperatorDescriptorODID1</text>
</g>
<!-- ODID2 -->
<g id="node3" class="node"><title>ODID2</title>
<polygon fill="none" stroke="black" points="31,-228.5 31,-251.5 517,-251.5 517,-228.5 31,-228.5"/>
<text text-anchor="middle" x="274" y="-236.3" font-family="Times,serif" font-size="14.00">edu.uci.ics.hyracks.storage.am.btree.dataflow.BTreeSearchOperatorDescriptorODID2</text>
</g>
<!-- ODID1&#45;&gt;ODID2 -->
<g id="edge4" class="edge"><title>ODID1&#45;&gt;ODID2</title>
<path fill="none" stroke="black" d="M274,-304.398C274,-293.298 274,-275.584 274,-261.698"/>
<polygon fill="black" stroke="black" points="277.5,-261.583 274,-251.583 270.5,-261.583 277.5,-261.583"/>
<text text-anchor="middle" x="501" y="-274.3" font-family="Times,serif" font-size="14.00">edu.uci.ics.hyracks.dataflow.std.connectors.OneToOneConnectorDescriptorCDID3</text>
</g>
<!-- ODID7 -->
<g id="node8" class="node"><title>ODID7</title>
<polygon fill="none" stroke="black" points="0,-152.5 0,-175.5 548,-175.5 548,-152.5 0,-152.5"/>
<text text-anchor="middle" x="274" y="-160.3" font-family="Times,serif" font-size="14.00">edu.uci.ics.hyracks.algebricks.runtime.operators.meta.AlgebricksMetaOperatorDescriptorODID7</text>
</g>
<!-- ODID2&#45;&gt;ODID7 -->
<g id="edge5" class="edge"><title>ODID2&#45;&gt;ODID7</title>
<path fill="none" stroke="black" d="M274,-228.398C274,-217.298 274,-199.584 274,-185.698"/>
<polygon fill="black" stroke="black" points="277.5,-185.583 274,-175.583 270.5,-185.583 277.5,-185.583"/>
<text text-anchor="middle" x="501" y="-198.3" font-family="Times,serif" font-size="14.00">edu.uci.ics.hyracks.dataflow.std.connectors.OneToOneConnectorDescriptorCDID4</text>
</g>
<!-- ODID3 -->
<g id="node4" class="node"><title>ODID3</title>
<polygon fill="none" stroke="black" points="51.5,-0.5 51.5,-23.5 496.5,-23.5 496.5,-0.5 51.5,-0.5"/>
<text text-anchor="middle" x="274" y="-8.3" font-family="Times,serif" font-size="14.00">edu.uci.ics.hyracks.dataflow.std.result.ResultWriterOperatorDescriptorODID3</text>
</g>
<!-- ODID4&#45;&gt;ODID1 -->
<g id="edge3" class="edge"><title>ODID4&#45;&gt;ODID1</title>
<path fill="none" stroke="black" d="M274,-380.398C274,-369.298 274,-351.584 274,-337.698"/>
<polygon fill="black" stroke="black" points="277.5,-337.583 274,-327.583 270.5,-337.583 277.5,-337.583"/>
<text text-anchor="middle" x="501" y="-350.3" font-family="Times,serif" font-size="14.00">edu.uci.ics.hyracks.dataflow.std.connectors.OneToOneConnectorDescriptorCDID2</text>
</g>
<!-- ODID5 -->
<g id="node6" class="node"><title>ODID5</title>
<polygon fill="none" stroke="black" points="0,-532.5 0,-555.5 548,-555.5 548,-532.5 0,-532.5"/>
<text text-anchor="middle" x="274" y="-540.3" font-family="Times,serif" font-size="14.00">edu.uci.ics.hyracks.algebricks.runtime.operators.meta.AlgebricksMetaOperatorDescriptorODID5</text>
</g>
<!-- ODID5&#45;&gt;ODID0 -->
<g id="edge1" class="edge"><title>ODID5&#45;&gt;ODID0</title>
<path fill="none" stroke="black" d="M274,-532.398C274,-521.298 274,-503.584 274,-489.698"/>
<polygon fill="black" stroke="black" points="277.5,-489.583 274,-479.583 270.5,-489.583 277.5,-489.583"/>
<text text-anchor="middle" x="501" y="-502.3" font-family="Times,serif" font-size="14.00">edu.uci.ics.hyracks.dataflow.std.connectors.OneToOneConnectorDescriptorCDID0</text>
</g>
<!-- ODID6 -->
<g id="node7" class="node"><title>ODID6</title>
<polygon fill="none" stroke="black" points="0,-76.5 0,-99.5 548,-99.5 548,-76.5 0,-76.5"/>
<text text-anchor="middle" x="274" y="-84.3" font-family="Times,serif" font-size="14.00">edu.uci.ics.hyracks.algebricks.runtime.operators.meta.AlgebricksMetaOperatorDescriptorODID6</text>
</g>
<!-- ODID6&#45;&gt;ODID3 -->
<g id="edge7" class="edge"><title>ODID6&#45;&gt;ODID3</title>
<path fill="none" stroke="black" d="M274,-76.3976C274,-65.2976 274,-47.5837 274,-33.6983"/>
<polygon fill="black" stroke="black" points="277.5,-33.5827 274,-23.5827 270.5,-33.5828 277.5,-33.5827"/>
<text text-anchor="middle" x="501" y="-46.3" font-family="Times,serif" font-size="14.00">edu.uci.ics.hyracks.dataflow.std.connectors.OneToOneConnectorDescriptorCDID6</text>
</g>
<!-- ODID7&#45;&gt;ODID6 -->
<g id="edge6" class="edge"><title>ODID7&#45;&gt;ODID6</title>
<path fill="none" stroke="black" d="M274,-152.398C274,-141.298 274,-123.584 274,-109.698"/>
<polygon fill="black" stroke="black" points="277.5,-109.583 274,-99.5827 270.5,-109.583 277.5,-109.583"/>
<text text-anchor="middle" x="545.5" y="-122.3" font-family="Times,serif" font-size="14.00">edu.uci.ics.hyracks.dataflow.std.connectors.MToNPartitioningMergingConnectorDescriptorCDID5</text>
</g>
</g>
</svg>
